<svg width="29" height="29" viewBox="0 0 29 29" fill="none" xmlns="http://www.w3.org/2000/svg">
<g id="Frame 1385" clip-path="url(#clip0_510_1337)">
<g id="Group 1618">
<g id="Ellipse 210" filter="url(#filter0_f_510_1337)">
<circle cx="15" cy="14" r="12" fill="#D9D9D9"/>
</g>
<path id="Vector" d="M14.3452 6C11.9132 6 9.93809 7.93282 9.93809 10.3182C9.93809 12.7035 11.9124 14.6364 14.3452 14.6364C16.779 14.6364 18.7532 12.7035 18.7532 10.3182C18.7532 7.93282 16.7807 6 14.3452 6ZM14.3452 6C11.9132 6 9.93809 7.93282 9.93809 10.3182C9.93809 12.7035 11.9124 14.6364 14.3452 14.6364C16.779 14.6364 18.7532 12.7035 18.7532 10.3182C18.7532 7.93282 16.7807 6 14.3452 6ZM12.694 16.076C9.54945 16.076 7 18.5737 7 21.6534V22.0118C7 23.2719 9.54945 23.2727 12.694 23.2727H16.367C19.5106 23.2727 22.0592 23.2261 22.0592 22.0118V21.6534C22.0592 18.5737 19.5106 16.076 16.367 16.076H12.694Z" fill="#00FFFF"/>
</g>
</g>
<defs>
<filter id="filter0_f_510_1337" x="-41" y="-42" width="112" height="112" filterUnits="userSpaceOnUse" color-interpolation-filters="sRGB">
<feFlood flood-opacity="0" result="BackgroundImageFix"/>
<feBlend mode="normal" in="SourceGraphic" in2="BackgroundImageFix" result="shape"/>
<feGaussianBlur stdDeviation="22" result="effect1_foregroundBlur_510_1337"/>
</filter>
<clipPath id="clip0_510_1337">
<rect width="29" height="29" fill="white"/>
</clipPath>
</defs>
</svg>
